<?xml version="1.0" standalone="no"?>
<!DOCTYPE svg PUBLIC "-//W3C//DTD SVG 20010904//EN"
 "http://www.w3.org/TR/2001/REC-SVG-20010904/DTD/svg10.dtd">
<svg version="1.0" xmlns="http://www.w3.org/2000/svg"
 width="172.000000pt" height="172.000000pt" viewBox="0 0 172.000000 172.000000"
 preserveAspectRatio="xMidYMid meet">
<metadata>
Created by potrace 1.11, written by Peter Selinger 2001-2013
</metadata>
<g transform="translate(0.000000,172.000000) scale(0.100000,-0.100000)"
fill="#000000" stroke="none">
<path d="M342 1061 c-104 -36 -161 -117 -164 -233 -2 -99 30 -167 102 -220 40
-29 75 -40 144 -43 200 -10 319 187 231 381 -48 105 -189 157 -313 115z m159
-104 c39 -26 58 -71 58 -140 1 -64 -21 -112 -61 -137 -60 -36 -135 -20 -174
37 -27 40 -27 166 0 206 40 59 118 74 177 34z"/>
<path d="M902 1061 c-67 -23 -105 -54 -137 -113 -13 -23 -18 -44 -29 -117 -4
-24 15 -114 30 -143 22 -42 63 -79 113 -101 55 -25 187 -29 239 -8 30 13 32
16 26 50 -9 49 -14 52 -59 40 -89 -25 -183 9 -211 77 -27 65 -12 157 32 196
34 30 107 43 166 31 29 -6 56 -8 59 -5 4 4 10 24 13 45 6 34 5 38 -20 48 -51
19 -166 19 -222 0z"/>
<path d="M1230 820 l0 -250 154 0 153 0 -2 43 c-2 23 -3 45 -4 50 -1 4 -41 7
-91 7 l-90 0 0 200 0 200 -60 0 -60 0 0 -250z"/>
</g>
</svg>
