<svg font-family="'Avenir 55 Roman'" version="1.1" viewBox="0 0 56 56" xmlns="http://www.w3.org/2000/svg">
<path d="m15.713 15.789c3.207-3.206 7.637-5.189 12.53-5.189 4.882 0 9.301 1.974 12.504 5.165l0.013-11.8c-3.75-1.931-8.008-3.023-12.517-3.023-4.511 0-8.791 1.229-12.544 3.162z" fill="#f26522"/>
<path d="m40.76 40.829c-3.205 3.206-7.634 5.188-12.528 5.188-4.879 0-9.3-1.973-12.505-5.164l-0.014 11.799c3.754 1.932 8.008 3.023 12.519 3.023s8.768-1.091 12.519-3.024z" fill="#eea616"/>
<path d="m15.738 40.844c-3.206-3.206-5.19-7.634-5.19-12.528 0-4.88 1.974-9.3 5.165-12.506l-11.8-0.012c-1.931 3.752-3.022 8.007-3.022 12.518 0 4.512 1.091 8.768 3.024 12.52z" fill="#5b57a6"/>
<path d="m40.753 15.764c3.207 3.205 5.19 7.636 5.19 12.53 0 4.881-1.974 9.3-5.166 12.503l11.801 0.014c1.932-3.751 3.022-8.008 3.022-12.517 0-4.512-1.09-8.769-3.024-12.522z" fill="#009384"/>
</svg>
